<svg xmlns="http://www.w3.org/2000/svg" xmlns:xlink="http://www.w3.org/1999/xlink" width="425" zoomAndPan="magnify" viewBox="0 0 318.75 38.249999" height="51" preserveAspectRatio="xMidYMid meet" version="1.0"><defs><clipPath id="7c21470f41"><path d="M 54 5.082031 L 56 5.082031 L 56 14 L 54 14 Z M 54 5.082031 " clip-rule="nonzero"/></clipPath><clipPath id="c39882f802"><path d="M 31.109375 6 L 56.875 6 L 56.875 31.582031 L 31.109375 31.582031 Z M 31.109375 6 " clip-rule="nonzero"/></clipPath><clipPath id="324a748453"><path d="M 2.941406 0 L 36 0 L 36 37 L 2.941406 37 Z M 2.941406 0 " clip-rule="nonzero"/></clipPath><clipPath id="0cd727bcbf"><path d="M 54 0 L 315.5625 0 L 315.5625 37 L 54 37 Z M 54 0 " clip-rule="nonzero"/></clipPath></defs><path fill="#bfb074" d="M 50.242188 22.910156 C 50.5625 23.230469 51.269531 23.929688 51.402344 24.058594 L 52.953125 22.527344 L 51.789062 21.382812 Z M 50.242188 22.910156 " fill-opacity="1" fill-rule="nonzero"/><g clip-path="url(#7c21470f41)"><path fill="#bfb074" d="M 55.765625 5.621094 C 55.765625 5.324219 55.519531 5.082031 55.21875 5.082031 C 54.917969 5.082031 54.671875 5.324219 54.671875 5.621094 L 54.671875 11.785156 C 55.089844 12.402344 55.457031 13.058594 55.765625 13.742188 Z M 55.765625 5.621094 " fill-opacity="1" fill-rule="nonzero"/></g><g clip-path="url(#c39882f802)"><path fill="#bfb074" d="M 55.765625 13.742188 L 55.765625 19.140625 C 55.765625 19.285156 55.707031 19.421875 55.605469 19.523438 L 53.53125 21.574219 L 54.113281 22.144531 C 54.328125 22.355469 54.328125 22.699219 54.113281 22.910156 L 51.789062 25.207031 C 51.574219 25.417969 51.230469 25.417969 51.015625 25.207031 L 50.433594 24.632812 L 50.046875 25.015625 C 49.832031 25.226562 49.488281 25.226562 49.273438 25.015625 C 49.058594 24.804688 49.058594 24.460938 49.273438 24.25 L 49.660156 23.867188 L 49.078125 23.292969 C 48.867188 23.082031 48.867188 22.738281 49.078125 22.527344 L 51.402344 20.234375 C 51.617188 20.023438 51.964844 20.023438 52.175781 20.234375 L 52.757812 20.808594 L 54.671875 18.917969 L 54.671875 11.785156 C 52.359375 8.394531 48.433594 6.160156 43.992188 6.160156 C 36.898438 6.160156 31.125 11.863281 31.125 18.871094 C 31.125 25.878906 36.898438 31.582031 43.992188 31.582031 C 51.089844 31.582031 56.859375 25.878906 56.859375 18.871094 C 56.859375 17.046875 56.46875 15.3125 55.765625 13.742188 Z M 43.992188 23.738281 C 41.277344 23.738281 39.066406 21.554688 39.066406 18.871094 C 39.066406 16.1875 41.277344 14.003906 43.992188 14.003906 C 46.710938 14.003906 48.921875 16.1875 48.921875 18.871094 C 48.921875 21.554688 46.710938 23.738281 43.992188 23.738281 Z M 43.992188 23.738281 " fill-opacity="1" fill-rule="nonzero"/></g><path fill="#bfb074" d="M 43.992188 15.085938 C 41.878906 15.085938 40.160156 16.785156 40.160156 18.871094 C 40.160156 20.960938 41.878906 22.65625 43.992188 22.65625 C 46.105469 22.65625 47.828125 20.960938 47.828125 18.871094 C 47.828125 16.785156 46.105469 15.085938 43.992188 15.085938 Z M 43.992188 20.792969 C 42.917969 20.792969 42.046875 19.933594 42.046875 18.871094 C 42.046875 17.8125 42.917969 16.949219 43.992188 16.949219 C 45.066406 16.949219 45.941406 17.8125 45.941406 18.871094 C 45.941406 19.933594 45.066406 20.792969 43.992188 20.792969 Z M 43.992188 20.792969 " fill-opacity="1" fill-rule="nonzero"/><g clip-path="url(#324a748453)"><path stroke-linecap="butt" transform="matrix(0.736154, 0, 0, 0.736154, 3.297326, -2.712073)" fill="none" stroke-linejoin="miter" d="M 2.132518 44.998934 L 12.47449 44.998934 C 13.052876 44.998934 13.509217 44.505448 13.509217 43.927062 L 13.509217 37.315417 C 13.509217 36.737031 13.965559 36.280689 14.549251 36.280689 L 31.6143 36.280689 C 32.18738 36.280689 32.643721 35.824348 32.643721 35.240655 L 32.643721 26.103213 C 32.643721 25.524827 32.150236 25.073792 31.57185 25.073792 L 14.549251 25.073792 C 13.965559 25.073792 13.509217 24.61745 13.509217 24.039064 C 13.509217 23.450065 13.965559 22.993724 14.549251 22.993724 L 33.275171 22.993724 C 33.853557 22.993724 34.309898 22.537382 34.309898 21.958996 L 34.309898 12.82686 C 34.309898 12.237861 33.853557 11.78152 33.275171 11.78152 L 2.095374 11.78152 C 1.506375 11.78152 1.050034 12.237861 1.050034 12.82686 L 1.050034 43.964206 C 1.050034 44.542592 1.554132 44.998934 2.132518 44.998934 Z M 2.132518 44.998934 " stroke="#bfb074" stroke-width="1.557011" stroke-opacity="1" stroke-miterlimit="4"/></g><g clip-path="url(#0cd727bcbf)"><path stroke-linecap="butt" transform="matrix(0.736154, 0, 0, 0.736154, 3.297326, -2.712073)" fill="none" stroke-linejoin="miter" d="M 78.951769 44.998934 L 89.330884 44.998934 C 89.90927 44.998934 90.365612 44.505448 90.365612 43.927062 L 90.365612 34.205927 C 90.365612 33.627541 90.821953 33.1712 91.410952 33.1712 L 97.635237 33.1712 C 98.213624 33.1712 98.669965 33.627541 98.669965 34.205927 L 98.669965 43.964206 C 98.669965 44.542592 99.126307 44.998934 99.715306 44.998934 L 110.094421 44.998934 C 110.672807 44.998934 111.129149 44.505448 111.129149 43.927062 L 111.129149 33.664685 C 111.129149 31.213176 109.340927 29.430261 106.889418 29.430261 L 106.523284 29.430261 C 105.939591 29.430261 105.48325 28.973919 105.48325 28.395533 C 105.48325 27.806534 105.939591 27.350193 106.523284 27.350193 L 106.889418 27.350193 C 109.340927 27.350193 111.129149 25.567277 111.129149 23.115768 L 111.129149 18.552354 C 111.129149 14.652226 108.269055 11.78152 104.363621 11.78152 L 78.951769 11.78152 C 78.36277 11.78152 77.906428 12.237861 77.906428 12.82686 L 77.906428 43.964206 C 77.906428 44.542592 78.36277 44.998934 78.951769 44.998934 Z M 91.410952 23.619866 C 90.821953 23.619866 90.365612 23.163525 90.365612 22.579832 C 90.365612 22.001446 90.821953 21.545105 91.410952 21.545105 L 97.635237 21.545105 C 98.213624 21.545105 98.669965 22.001446 98.669965 22.579832 C 98.669965 23.163525 98.213624 23.619866 97.635237 23.619866 Z M 130.92694 44.998934 L 141.263605 44.998934 C 141.852604 44.998934 142.308945 44.505448 142.308945 43.927062 L 142.308945 24.039064 C 142.308945 23.450065 142.807737 22.993724 143.380817 22.993724 L 147.540953 22.993724 C 148.11934 22.993724 148.575681 22.537382 148.575681 21.958996 L 148.575681 12.82686 C 148.575681 12.280311 148.11934 11.78152 147.540953 11.78152 L 124.617754 11.739069 C 124.034061 11.739069 123.57772 12.195411 123.57772 12.78441 L 123.57772 21.958996 C 123.57772 22.537382 124.034061 22.993724 124.617754 22.993724 L 128.767277 22.993724 C 129.356276 22.993724 129.849762 23.450065 129.849762 24.039064 L 129.849762 43.964206 C 129.849762 44.542592 130.348554 44.998934 130.92694 44.998934 Z M 151.727621 44.998934 L 162.069592 44.998934 C 162.647979 44.998934 163.10432 44.542592 163.10432 43.964206 L 163.10432 34.821458 C 163.10432 34.243072 163.560662 33.78673 164.144354 33.78673 C 164.72274 33.78673 165.179082 34.285522 165.179082 34.874521 L 165.179082 43.964206 C 165.179082 44.542592 165.677874 44.998934 166.25626 44.998934 L 176.592925 44.998934 C 177.181924 44.998934 177.638265 44.542592 177.638265 43.964206 L 177.638265 12.82686 C 177.638265 12.237861 177.139474 11.78152 176.555781 11.78152 L 166.21381 11.78152 C 165.635423 11.78152 165.179082 12.237861 165.179082 12.82686 L 165.179082 21.958996 C 165.179082 22.537382 164.72274 22.993724 164.144354 22.993724 C 163.560662 22.993724 163.10432 22.537382 163.10432 21.958996 L 163.10432 12.82686 C 163.10432 12.237861 162.605528 11.78152 162.027142 11.78152 L 151.690477 11.78152 C 151.101478 11.78152 150.645137 12.237861 150.645137 12.82686 L 150.645137 43.964206 C 150.645137 44.542592 151.149235 44.998934 151.727621 44.998934 Z M 180.790205 44.998934 L 211.927552 44.998934 C 212.505938 44.998934 212.962279 44.542592 212.962279 43.964206 L 212.962279 36.068437 C 212.962279 35.490051 212.468794 35.03371 211.890408 35.03371 L 193.206939 35.03371 C 192.61794 35.03371 192.161598 34.577368 192.161598 34.004288 C 192.161598 33.415289 192.61794 32.958948 193.206939 32.958948 L 210.266681 32.958948 C 210.845067 32.958948 211.301409 32.502606 211.301409 31.92422 L 211.301409 24.856234 C 211.301409 24.283154 210.802617 23.826812 210.22423 23.826812 L 193.206939 23.826812 C 192.61794 23.826812 192.161598 23.370471 192.161598 22.792084 C 192.161598 22.203085 192.61794 21.746744 193.206939 21.746744 L 211.927552 21.746744 C 212.505938 21.746744 212.962279 21.290402 212.962279 20.712016 L 212.962279 12.82686 C 212.962279 12.237861 212.505938 11.78152 211.927552 11.78152 L 180.747755 11.78152 C 180.158756 11.78152 179.707721 12.237861 179.707721 12.82686 L 179.707721 43.964206 C 179.707721 44.542592 180.211819 44.998934 180.790205 44.998934 Z M 226.456191 44.998934 L 236.835306 44.998934 C 237.413692 44.998934 237.870034 44.505448 237.870034 43.927062 L 237.870034 34.205927 C 237.870034 33.627541 238.326375 33.1712 238.915374 33.1712 L 245.13966 33.1712 C 245.718046 33.1712 246.174387 33.627541 246.174387 34.205927 L 246.174387 43.964206 C 246.174387 44.542592 246.630729 44.998934 247.219728 44.998934 L 257.598843 44.998934 C 258.177229 44.998934 258.633571 44.505448 258.633571 43.927062 L 258.633571 33.664685 C 258.633571 31.213176 256.845349 29.430261 254.39384 29.430261 L 254.027706 29.430261 C 253.444013 29.430261 252.987672 28.973919 252.987672 28.395533 C 252.987672 27.806534 253.444013 27.350193 254.027706 27.350193 L 254.39384 27.350193 C 256.845349 27.350193 258.633571 25.567277 258.633571 23.115768 L 258.633571 18.552354 C 258.633571 14.652226 255.773477 11.78152 251.868043 11.78152 L 226.456191 11.78152 C 225.872498 11.78152 225.416157 12.237861 225.416157 12.82686 L 225.416157 43.964206 C 225.416157 44.542592 225.872498 44.998934 226.456191 44.998934 Z M 238.915374 23.619866 C 238.326375 23.619866 237.870034 23.163525 237.870034 22.579832 C 237.870034 22.001446 238.326375 21.545105 238.915374 21.545105 L 245.13966 21.545105 C 245.718046 21.545105 246.174387 22.001446 246.174387 22.579832 C 246.174387 23.163525 245.718046 23.619866 245.13966 23.619866 Z M 261.785511 44.998934 L 292.928163 44.998934 C 293.50655 44.998934 293.962891 44.542592 293.962891 43.964206 L 293.962891 36.068437 C 293.962891 35.490051 293.464099 35.03371 292.885713 35.03371 L 274.202244 35.03371 C 273.618551 35.03371 273.16221 34.577368 273.16221 34.004288 C 273.16221 33.415289 273.618551 32.958948 274.202244 32.958948 L 291.261986 32.958948 C 291.840373 32.958948 292.296714 32.502606 292.296714 31.92422 L 292.296714 24.856234 C 292.296714 24.283154 291.803228 23.826812 291.224842 23.826812 L 274.202244 23.826812 C 273.618551 23.826812 273.16221 23.370471 273.16221 22.792084 C 273.16221 22.203085 273.618551 21.746744 274.202244 21.746744 L 292.928163 21.746744 C 293.50655 21.746744 293.962891 21.290402 293.962891 20.712016 L 293.962891 12.82686 C 293.962891 12.237861 293.50655 11.78152 292.928163 11.78152 L 261.748367 11.78152 C 261.159368 11.78152 260.703026 12.237861 260.703026 12.82686 L 260.703026 43.964206 C 260.703026 44.542592 261.207124 44.998934 261.785511 44.998934 Z M 304.506502 44.998934 L 328.215033 44.998934 C 328.793419 44.998934 329.249761 44.505448 329.249761 43.927062 L 329.249761 34.821458 C 329.249761 34.243072 328.793419 33.78673 328.215033 33.78673 L 309.531564 33.78673 C 308.947872 33.78673 308.49153 33.330389 308.49153 32.757309 L 308.49153 24.039064 C 308.49153 23.450065 308.947872 22.993724 309.531564 22.993724 L 328.215033 22.993724 C 328.793419 22.993724 329.249761 22.494932 329.249761 21.916545 L 329.249761 12.82686 C 329.249761 12.237861 328.793419 11.78152 328.215033 11.78152 L 304.506502 11.78152 C 299.60879 11.78152 296.032347 15.352657 296.032347 20.255675 L 296.032347 36.524779 C 296.032347 41.433103 299.60879 44.998934 304.506502 44.998934 Z M 339.793371 44.998934 L 349.83819 44.998934 C 354.746514 44.998934 358.312345 41.433103 358.312345 36.524779 L 358.312345 20.255675 C 358.312345 15.352657 354.746514 11.78152 349.83819 11.78152 L 339.793371 11.78152 C 334.900966 11.78152 331.319216 15.352657 331.319216 20.255675 L 331.319216 36.524779 C 331.319216 41.433103 334.900966 44.998934 339.793371 44.998934 Z M 344.82374 35.452907 C 344.234741 35.452907 343.7784 34.996566 343.7784 34.418179 L 343.7784 22.372887 C 343.7784 21.789194 344.234741 21.332853 344.82374 21.332853 C 345.402126 21.332853 345.858468 21.789194 345.858468 22.372887 L 345.858468 34.418179 C 345.858468 34.996566 345.402126 35.452907 344.82374 35.452907 Z M 361.427141 44.998934 L 371.806256 44.998934 C 372.384643 44.998934 372.840984 44.505448 372.840984 43.927062 L 372.840984 34.205927 C 372.840984 33.627541 373.297326 33.1712 373.881018 33.1712 L 380.105304 33.1712 C 380.68369 33.1712 381.140031 33.627541 381.140031 34.205927 L 381.140031 43.964206 C 381.140031 44.542592 381.596373 44.998934 382.185372 44.998934 L 392.564487 44.998934 C 393.142874 44.998934 393.599215 44.505448 393.599215 43.927062 L 393.599215 33.664685 C 393.599215 31.213176 391.816299 29.430261 389.359484 29.430261 L 388.998656 29.430261 C 388.409657 29.430261 387.953316 28.973919 387.953316 28.395533 C 387.953316 27.806534 388.409657 27.350193 388.998656 27.350193 L 389.359484 27.350193 C 391.816299 27.350193 393.599215 25.567277 393.599215 23.115768 L 393.599215 18.552354 C 393.599215 14.652226 390.739121 11.78152 386.838994 11.78152 L 361.427141 11.78152 C 360.838142 11.78152 360.381801 12.237861 360.381801 12.82686 L 360.381801 43.964206 C 360.381801 44.542592 360.838142 44.998934 361.427141 44.998934 Z M 373.881018 23.619866 C 373.297326 23.619866 372.840984 23.163525 372.840984 22.579832 C 372.840984 22.001446 373.297326 21.545105 373.881018 21.545105 L 380.105304 21.545105 C 380.68369 21.545105 381.140031 22.001446 381.140031 22.579832 C 381.140031 23.163525 380.68369 23.619866 380.105304 23.619866 Z M 396.714011 44.998934 L 414.187644 44.998934 C 419.095968 44.998934 422.661799 41.433103 422.661799 36.524779 L 422.661799 20.255675 C 422.661799 15.352657 419.095968 11.78152 414.187644 11.78152 L 396.714011 11.78152 C 396.125012 11.78152 395.668671 12.237861 395.668671 12.82686 L 395.668671 43.964206 C 395.668671 44.542592 396.125012 44.998934 396.714011 44.998934 Z M 409.173194 35.452907 C 408.584195 35.452907 408.127854 34.996566 408.127854 34.418179 L 408.127854 22.372887 C 408.127854 21.789194 408.584195 21.332853 409.173194 21.332853 C 409.751581 21.332853 410.207922 21.789194 410.207922 22.372887 L 410.207922 34.418179 C 410.207922 34.996566 409.751581 35.452907 409.173194 35.452907 Z M 409.173194 35.452907 " stroke="#bfb074" stroke-width="1.557011" stroke-opacity="1" stroke-miterlimit="4"/></g></svg>