<svg xmlns="http://www.w3.org/2000/svg" xmlns:xlink="http://www.w3.org/1999/xlink" width="500" zoomAndPan="magnify" viewBox="0 0 375 374.999991" height="500" preserveAspectRatio="xMidYMid meet" version="1.0"><defs><clipPath id="88400d30d9"><path d="M 317 17.9375 L 331 17.9375 L 331 125 L 317 125 Z M 317 17.9375 " clip-rule="nonzero"/></clipPath><clipPath id="217786f13c"><path d="M 30.59375 31 L 344 31 L 344 344.9375 L 30.59375 344.9375 Z M 30.59375 31 " clip-rule="nonzero"/></clipPath></defs><path fill="#bfb074" d="M 263.386719 237.949219 C 267.304688 241.875 275.921875 250.503906 277.523438 252.105469 L 296.375 233.230469 L 282.234375 219.074219 Z M 263.386719 237.949219 " fill-opacity="1" fill-rule="nonzero"/><g clip-path="url(#88400d30d9)"><path fill="#bfb074" d="M 330.632812 24.609375 C 330.632812 20.925781 327.648438 17.9375 323.96875 17.9375 C 320.289062 17.9375 317.304688 20.925781 317.304688 24.609375 L 317.304688 100.679688 C 322.421875 108.285156 326.886719 116.367188 330.632812 124.835938 Z M 330.632812 24.609375 " fill-opacity="1" fill-rule="nonzero"/></g><g clip-path="url(#217786f13c)"><path fill="#bfb074" d="M 330.632812 124.835938 L 330.632812 191.445312 C 330.632812 193.21875 329.929688 194.914062 328.679688 196.164062 L 303.445312 221.4375 L 310.511719 228.511719 C 313.113281 231.117188 313.113281 235.34375 310.511719 237.949219 L 282.234375 266.265625 C 279.632812 268.871094 275.414062 268.871094 272.808594 266.265625 L 265.742188 259.1875 L 261.027344 263.90625 C 258.425781 266.511719 254.207031 266.511719 251.601562 263.90625 C 249 261.300781 249 257.074219 251.601562 254.46875 L 256.316406 249.75 L 249.246094 242.671875 C 246.644531 240.066406 246.644531 235.839844 249.246094 233.230469 L 277.523438 204.917969 C 280.125 202.3125 284.34375 202.3125 286.949219 204.917969 L 294.015625 212 L 317.300781 188.683594 L 317.300781 100.679688 C 289.144531 58.851562 241.398438 31.285156 187.34375 31.285156 C 100.984375 31.285156 30.726562 101.636719 30.726562 188.109375 C 30.726562 274.585938 100.984375 344.9375 187.34375 344.9375 C 273.703125 344.9375 343.960938 274.585938 343.960938 188.109375 C 343.960938 165.605469 339.195312 144.199219 330.632812 124.835938 Z M 187.34375 248.171875 C 154.269531 248.171875 127.363281 221.226562 127.363281 188.109375 C 127.363281 154.992188 154.269531 128.050781 187.34375 128.050781 C 220.417969 128.050781 247.324219 154.992188 247.324219 188.109375 C 247.324219 221.226562 220.417969 248.171875 187.34375 248.171875 Z M 187.34375 248.171875 " fill-opacity="1" fill-rule="nonzero"/></g><path fill="#bfb074" d="M 187.34375 141.394531 C 161.621094 141.394531 140.691406 162.351562 140.691406 188.109375 C 140.691406 213.867188 161.621094 234.824219 187.34375 234.824219 C 213.066406 234.824219 233.996094 213.867188 233.996094 188.109375 C 233.996094 162.351562 213.066406 141.394531 187.34375 141.394531 Z M 187.34375 211.839844 C 174.277344 211.839844 163.648438 201.195312 163.648438 188.109375 C 163.648438 175.027344 174.277344 164.382812 187.34375 164.382812 C 200.410156 164.382812 211.039062 175.027344 211.039062 188.109375 C 211.039062 201.195312 200.410156 211.839844 187.34375 211.839844 Z M 187.34375 211.839844 " fill-opacity="1" fill-rule="nonzero"/></svg>